
<svg width="288" height="46" viewBox="0 0 288 46" xmlns="http://www.w3.org/2000/svg">
    <g fill-rule="nonzero" fill="none">
        <path d="M114.379 12.602h3.672c1.351 0 2.413.356 3.18 1.07.765.715 1.152 1.726 1.152 3.044 0 1.317-.384 2.393-1.153 3.125-.768.732-1.828 1.096-3.18 1.096h-3.671v-8.335zm21.548 21.714a6.679 6.679 0 0 1-3.29-.851 8.848 8.848 0 0 1-2.796-2.55l-3.048-4.127a12.688 12.688 0 0 0 4.724-4.37 12.12 12.12 0 0 0 1.836-6.525c.015-2.05-.519-4.067-1.547-5.841-1.032-1.77-2.567-3.187-4.606-4.25-2.039-1.062-4.506-1.592-7.4-1.588h-15.84v38.939h10.419V28.941h2.663l3.75 6.251c1.793 2.96 3.712 5.024 5.758 6.19 2.046 1.165 4.77 1.75 8.17 1.753h.492l1.153-8.827-.438.008z" fill="#241F21"/>
        <path d="M157.529 29.354a8.476 8.476 0 0 1-3.592 3.61c-1.547.824-3.384 1.235-5.511 1.233h-4.221V13.152h4.22c2.085 0 3.903.401 5.458 1.204a8.51 8.51 0 0 1 3.61 3.564c.86 1.573 1.29 3.474 1.29 5.704 0 2.23-.421 4.14-1.262 5.73m9.65-15.988a17.507 17.507 0 0 0-7.154-6.77c-3.053-1.59-6.517-2.385-10.392-2.385h-15.839v38.29l1.419.642h14.44c3.876 0 7.34-.823 10.393-2.468a17.904 17.904 0 0 0 7.154-6.934c1.719-2.981 2.578-6.39 2.578-10.228 0-3.837-.86-7.219-2.578-10.145" fill="#241F21"/>
        <path d="M178.915 12.602h3.662c1.35 0 2.413.356 3.18 1.07.765.715 1.152 1.726 1.152 3.044 0 1.317-.384 2.393-1.153 3.125-.768.732-1.828 1.096-3.18 1.096h-3.661v-8.335zm21.548 21.714a6.679 6.679 0 0 1-3.29-.851 8.848 8.848 0 0 1-2.796-2.55l-3.048-4.127a12.688 12.688 0 0 0 4.719-4.366 12.12 12.12 0 0 0 1.836-6.524c.015-2.05-.519-4.067-1.547-5.84-1.032-1.772-2.567-3.188-4.606-4.25-2.039-1.063-4.507-1.593-7.403-1.59h-15.832v38.94h10.419V28.941h2.664l3.75 6.251c1.792 2.96 3.712 5.024 5.757 6.19 2.046 1.165 4.77 1.75 8.17 1.753h.493l1.152-8.827-.438.008z" fill="#241F21"/>
        <path d="m209.911 27.791 3.982-12.336 4.013 12.336h-7.995zm12.974 15.352h11.022l-13.982-38.94h-11.458l-12.223 34.04 3.505 4.9h5.209l2.336-7.236h13.242l2.35 7.236z" fill="#241F21"/>
        <path fill="#241F21" d="M231.111 4.214h10.418v38.929h-10.418zM254.826 33.875V4.214h-10.418v38.931h17.21v-9.27z"/>
        <path d="M276.24 43.145a11.697 11.697 0 0 0 3.721-.603 13.203 13.203 0 0 0 3.9-2.251c2.686-2.265 4.03-5.353 4.03-9.266a14.111 14.111 0 0 0-.183-2.352 11.78 11.78 0 0 0-4.642-6.895l-.02-.018a19.428 19.428 0 0 0-2.273-1.261c-1.007-.48-2.04-.901-3.094-1.264-1.786-.62-3.138-1.123-4.054-1.506a8.133 8.133 0 0 1-2.166-1.264 2.02 2.02 0 0 1-.794-1.56 1.805 1.805 0 0 1 .959-1.62 4.549 4.549 0 0 1 2.383-.572 5.57 5.57 0 0 1 2.96.774 5.846 5.846 0 0 1 1.975 1.919l8.172-4.88c-.842-1.939-2.433-3.566-4.773-4.881-2.34-1.315-5.154-1.973-8.443-1.973-2.67 0-5.045.494-7.127 1.48a11.589 11.589 0 0 0-4.9 4.25c-1.188 1.845-1.782 4.03-1.782 6.553 0 2.047.41 3.802 1.233 5.263a10.676 10.676 0 0 0 3.535 3.703c.348.227.722.457 1.117.678a34.984 34.984 0 0 0 4.75 2.2c1.936.729 3.326 1.285 4.17 1.669a7.53 7.53 0 0 1 1.446.832c.524.33.857.89.898 1.506a.75.75 0 0 1 0 .135 1.942 1.942 0 0 1-1.947 1.941h-15.793v9.271l16.742-.008z" fill="#241F21"/>
        <path d="M105.471 25.61a54.874 54.874 0 0 0-4.528 2.462c-.42.255-.835.513-1.245.774h-.018c-.165.103-.328.212-.49.317-.39.258-.774.516-1.156.774h-.018a41.35 41.35 0 0 1-1.609 1l4.784 12.16h10.676c-4.289-4.434-6.473-11.29-6.393-17.536" fill="#E5E8E8"/>
        <path d="M125.38 20.344a4.879 4.879 0 0 0 3.4-2.958h-.14a4.9 4.9 0 0 1-2.232-.542 12.912 12.912 0 0 1 2.156-1.315 20.63 20.63 0 0 0-6.202-3.455 4.879 4.879 0 0 0 1.251 8.42h.619c.387 0 .772-.048 1.148-.14" fill="#E6E7E8"/>
        <path d="M126.408 16.85a4.9 4.9 0 0 0 2.231.541h.142c.09-.227.163-.46.217-.699a4.42 4.42 0 0 0 .11-.693c-.18-.158-.358-.31-.544-.462a13.1 13.1 0 0 0-2.156 1.318M112.738 11.016a1.62 1.62 0 0 1-.09.508 1.666 1.666 0 0 1-1.66-.572 1.031 1.031 0 0 1-.075-.11 1.163 1.163 0 0 1-.165-.334 1.29 1.29 0 0 1-.078-.438.575.575 0 0 1 .307-.516.565.565 0 0 1 .279-.08 1.607 1.607 0 0 1 1.178.632c.198.259.306.575.307.9" fill="#241F21"/>
        <path d="M91.67 9.026a53.29 53.29 0 0 0 3.945-1.274c.34-.121.681-.258 1.032-.382 1.253.361 2.525.678 3.817.952a54.884 54.884 0 0 0 9.206 1.124 1.14 1.14 0 0 1 .567-.869 1.08 1.08 0 0 1 .516-.155 2.973 2.973 0 0 1 2.037 1.05l1.475-.036c.235-.02.47-.034.707-.034s.469 0 .701.034c.336.023.67.074.998.152.974.203 1.9.591 2.726 1.145.454 0 1.947.387 2.078.387a.683.683 0 0 1 .66.879l.145.041.067.026a4.882 4.882 0 0 0 1.248 8.42h-.028a53.945 53.945 0 0 0-11.166 2.331c-.392.124-.774.258-1.163.39-.39.13-.717.257-1.073.386a54.072 54.072 0 0 0-9.24 4.472 31.422 31.422 0 0 1-.541 1.756c-.158.449-.32.89-.49 1.33-.172.463-.362.919-.57 1.367C99.089 33.052 91.664 9 91.664 9" fill="#FFF"/>
        <path d="M126.408 16.85a4.9 4.9 0 0 0 2.231.541h.142c.09-.227.163-.46.217-.699a4.42 4.42 0 0 0 .11-.693c-.18-.158-.358-.31-.544-.462a13.1 13.1 0 0 0-2.156 1.318M112.738 11.016a1.62 1.62 0 0 1-.09.508 1.666 1.666 0 0 1-1.66-.572 1.031 1.031 0 0 1-.075-.11 1.163 1.163 0 0 1-.165-.334 1.29 1.29 0 0 1-.078-.438.575.575 0 0 1 .307-.516.565.565 0 0 1 .279-.08 1.607 1.607 0 0 1 1.178.632c.198.259.306.575.307.9M120.096 12.561a1.937 1.937 0 0 1 1.451.43 4.384 4.384 0 0 0-1.694.403c0-.295.084-.584.243-.833M55.588 43.692c-3.363 0-6.285-.602-8.768-1.805a13.41 13.41 0 0 1-5.784-5.235c-1.375-2.285-2.063-5.017-2.063-8.198V4.214h10.415v23.139c0 2.156.558 3.782 1.674 4.879 1.116 1.097 2.642 1.645 4.577 1.645 1.94 0 3.466-.548 4.58-1.645 1.114-1.097 1.671-2.723 1.671-4.879V4.213h10.315v24.241c0 3.18-.687 5.913-2.063 8.198a13.392 13.392 0 0 1-5.784 5.235c-2.486 1.203-5.408 1.805-8.768 1.805" fill="#241F21"/>
        <path d="m82.76 27.791 3.982-12.336 4.007 12.336H82.76zm12.974 15.352h11.027L92.779 4.203H81.314l-13.982 38.94h10.472l2.336-7.236h13.245l2.35 7.236zM36.407 19.614H20.179v8.719h5.931v4.417a13.768 13.768 0 0 1-7.896 3.164 13.773 13.773 0 0 1-7.899-3.164V11.677c3.675-1.839 7.896-1.764 7.896-1.764s4.224-.075 7.896 1.764v2.656h10.315V4.069a35.375 35.375 0 0 0-6.415-2.424l-.41-.098A46.392 46.392 0 0 0 18.202 0a45.051 45.051 0 0 0-8.298.836L9.482.92a44.833 44.833 0 0 0-3.161.75A35.363 35.363 0 0 0 0 4.069v34.07C8.445 45.284 18.203 46 18.203 46s9.759-.717 18.204-7.86V19.614z" fill="#241F21"/>
    </g>
</svg>