<svg width="11123" height="2967" viewBox="0 0 11123 2967" fill="none" xmlns="http://www.w3.org/2000/svg">
<path d="M1088.79 810H501.953C679.358 336.804 1135.84 0 1670.98 0C2206.12 0.000102442 2662.59 336.792 2840 809.976L2207.54 810C2158.6 700.515 2078.63 606.581 1970.78 543.07C1675.43 369.16 1282.07 488.786 1088.79 810Z" fill="white"/>
<path d="M3080.28 860H3303.2C3358.36 860 3403.08 904.72 3403.08 959.885V2561.73C3403.08 2616.89 3358.36 2661.61 3303.2 2661.61H3095.17V2662.36H3339.61V2662.54H1273V2197.74H2345.01L2345.01 2197.74C2354.89 2197.74 2366.64 2197.08 2379.89 2195.62C2380.2 2195.58 2380.51 2195.55 2380.82 2195.51C2392.34 2194.21 2404.97 2192.29 2418.47 2189.66C2418.6 2189.63 2418.73 2189.61 2418.86 2189.58C2432.54 2186.9 2447.11 2183.48 2462.32 2179.21C2462.4 2179.18 2462.49 2179.16 2462.57 2179.13C2564.81 2150.37 2695.79 2083.18 2779.26 1943.93C2824.35 1868.72 2855.58 1772.49 2860.94 1649.92C2860.94 1649.92 2860.94 1266.13 2470.72 1146.57C2470.72 1146.57 2451.31 940.686 2272.08 860.226H3073.54C3075.77 860.077 3078.02 860 3080.28 860Z" fill="white"/>
<path d="M1061.08 860.225C1017.35 947.091 992.357 1038.49 984.93 1128.86C764.764 1139.66 510.592 1354.54 510.592 1649.92C510.592 1975.84 759.518 2197.74 1038.46 2197.74H1222.36V2662.53H332.689C329.502 2662.84 326.271 2663 323.004 2663H99.9492C44.749 2663 1.03219e-05 2618.25 0 2563.05V960.174C0 904.974 44.749 860.225 99.9492 860.225H1061.08Z" fill="white"/>
<path d="M4590.96 541.727V1069H4529.17L4241.85 655.009H4236.7V1069H4172.85V541.727H4234.64L4522.99 956.749H4528.14V541.727H4590.96ZM4826.86 1078.27C4801.8 1078.27 4779.05 1073.55 4758.63 1064.11C4738.2 1054.5 4721.98 1040.68 4709.97 1022.66C4697.96 1004.46 4691.95 982.494 4691.95 956.749C4691.95 934.092 4696.41 915.727 4705.34 901.653C4714.26 887.407 4726.19 876.25 4741.12 868.183C4756.05 860.116 4772.53 854.109 4790.55 850.161C4808.75 846.042 4827.03 842.781 4845.39 840.378C4869.42 837.288 4888.9 834.971 4903.84 833.426C4918.94 831.71 4929.92 828.878 4936.79 824.93C4943.83 820.983 4947.35 814.117 4947.35 804.334V802.274C4947.35 776.872 4940.39 757.133 4926.49 743.059C4912.76 728.985 4891.91 721.947 4863.93 721.947C4834.92 721.947 4812.18 728.298 4795.7 740.999C4779.23 753.701 4767.64 767.26 4760.95 781.678L4703.28 761.081C4713.57 737.052 4727.31 718.343 4744.47 704.955C4761.8 691.396 4780.68 681.956 4801.11 676.635C4821.71 671.143 4841.96 668.396 4861.87 668.396C4874.57 668.396 4889.16 669.941 4905.64 673.031C4922.29 675.948 4938.33 682.042 4953.78 691.31C4969.4 700.578 4982.36 714.567 4992.66 733.276C5002.96 751.984 5008.11 777.043 5008.11 808.453V1069H4947.35V1015.45H4944.26C4940.14 1024.03 4933.27 1033.21 4923.66 1043C4914.05 1052.78 4901.26 1061.1 4885.3 1067.97C4869.34 1074.84 4849.86 1078.27 4826.86 1078.27ZM4836.12 1023.69C4860.15 1023.69 4880.41 1018.97 4896.88 1009.53C4913.53 1000.09 4926.06 987.901 4934.47 972.968C4943.05 958.036 4947.35 942.331 4947.35 925.854V870.243C4944.77 873.332 4939.11 876.164 4930.35 878.739C4921.77 881.142 4911.82 883.287 4900.49 885.175C4889.33 886.892 4878.43 888.437 4867.79 889.81C4857.32 891.011 4848.83 892.041 4842.3 892.899C4826.51 894.959 4811.75 898.306 4798.02 902.94C4784.46 907.403 4773.48 914.182 4765.07 923.279C4756.83 932.204 4752.71 944.391 4752.71 959.838C4752.71 980.95 4760.52 996.912 4776.14 1007.73C4791.93 1018.37 4811.92 1023.69 4836.12 1023.69ZM5290.99 673.545V725.037H5086.05V673.545H5290.99ZM5145.78 578.801H5206.54V955.719C5206.54 972.883 5209.03 985.755 5214.01 994.337C5219.16 1002.75 5225.68 1008.41 5233.57 1011.33C5241.64 1014.08 5250.14 1015.45 5259.06 1015.45C5265.76 1015.45 5271.25 1015.11 5275.54 1014.42C5279.83 1013.56 5283.26 1012.87 5285.84 1012.36L5298.2 1066.94C5294.08 1068.49 5288.33 1070.03 5280.95 1071.57C5273.57 1073.29 5264.21 1074.15 5252.88 1074.15C5235.72 1074.15 5218.9 1070.46 5202.42 1063.08C5186.12 1055.7 5172.56 1044.46 5161.74 1029.35C5151.1 1014.25 5145.78 995.196 5145.78 972.196V578.801ZM5382.38 1069V673.545H5443.14V1069H5382.38ZM5413.28 607.636C5401.44 607.636 5391.22 603.603 5382.64 595.536C5374.23 587.469 5370.03 577.771 5370.03 566.443C5370.03 555.115 5374.23 545.417 5382.64 537.35C5391.22 529.283 5401.44 525.25 5413.28 525.25C5425.12 525.25 5435.25 529.283 5443.66 537.35C5452.24 545.417 5456.53 555.115 5456.53 566.443C5456.53 577.771 5452.24 587.469 5443.66 595.536C5435.25 603.603 5425.12 607.636 5413.28 607.636ZM5715.08 1077.24C5679.38 1077.24 5648.06 1068.74 5621.11 1051.75C5594.34 1034.76 5573.4 1010.99 5558.29 980.435C5543.36 949.883 5535.89 914.182 5535.89 873.332C5535.89 832.139 5543.36 796.181 5558.29 765.458C5573.4 734.734 5594.34 710.877 5621.11 693.885C5648.06 676.892 5679.38 668.396 5715.08 668.396C5750.78 668.396 5782.02 676.892 5808.8 693.885C5835.75 710.877 5856.69 734.734 5871.62 765.458C5886.72 796.181 5894.27 832.139 5894.27 873.332C5894.27 914.182 5886.72 949.883 5871.62 980.435C5856.69 1010.99 5835.75 1034.76 5808.8 1051.75C5782.02 1068.74 5750.78 1077.24 5715.08 1077.24ZM5715.08 1022.66C5742.2 1022.66 5764.52 1015.71 5782.02 1001.8C5799.53 987.901 5812.49 969.621 5820.9 946.965C5829.31 924.309 5833.51 899.765 5833.51 873.332C5833.51 846.9 5829.31 822.27 5820.9 799.442C5812.49 776.614 5799.53 758.163 5782.02 744.089C5764.52 730.014 5742.2 722.977 5715.08 722.977C5687.96 722.977 5665.65 730.014 5648.14 744.089C5630.64 758.163 5617.68 776.614 5609.27 799.442C5600.86 822.27 5596.65 846.9 5596.65 873.332C5596.65 899.765 5600.86 924.309 5609.27 946.965C5617.68 969.621 5630.64 987.901 5648.14 1001.8C5665.65 1015.71 5687.96 1022.66 5715.08 1022.66ZM6047.78 831.109V1069H5987.02V673.545H6045.72V735.335H6050.87C6060.14 715.254 6074.22 699.12 6093.1 686.933C6111.98 674.575 6136.35 668.396 6166.21 668.396C6192.99 668.396 6216.42 673.889 6236.5 684.874C6256.58 695.687 6272.2 712.164 6283.36 734.305C6294.51 756.275 6300.09 784.08 6300.09 817.722V1069H6239.33V821.841C6239.33 790.774 6231.26 766.573 6215.13 749.238C6199 731.731 6176.85 722.977 6148.71 722.977C6129.31 722.977 6111.98 727.182 6096.7 735.593C6081.6 744.003 6069.67 756.275 6060.91 772.409C6052.16 788.543 6047.78 808.11 6047.78 831.109ZM6527.49 1078.27C6502.43 1078.27 6479.69 1073.55 6459.26 1064.11C6438.84 1054.5 6422.62 1040.68 6410.6 1022.66C6398.59 1004.46 6392.58 982.494 6392.58 956.749C6392.58 934.092 6397.05 915.727 6405.97 901.653C6414.9 887.407 6426.82 876.25 6441.76 868.183C6456.69 860.116 6473.17 854.109 6491.19 850.161C6509.38 846.042 6527.66 842.781 6546.03 840.378C6570.06 837.288 6589.54 834.971 6604.47 833.426C6619.57 831.71 6630.56 828.878 6637.42 824.93C6644.46 820.983 6647.98 814.117 6647.98 804.334V802.274C6647.98 776.872 6641.03 757.133 6627.13 743.059C6613.4 728.985 6592.54 721.947 6564.56 721.947C6535.56 721.947 6512.82 728.298 6496.34 740.999C6479.86 753.701 6468.28 767.26 6461.58 781.678L6403.91 761.081C6414.21 737.052 6427.94 718.343 6445.1 704.955C6462.44 691.396 6481.32 681.956 6501.74 676.635C6522.34 671.143 6542.59 668.396 6562.5 668.396C6575.21 668.396 6589.8 669.941 6606.27 673.031C6622.92 675.948 6638.97 682.042 6654.42 691.31C6670.04 700.578 6682.99 714.567 6693.29 733.276C6703.59 751.984 6708.74 777.043 6708.74 808.453V1069H6647.98V1015.45H6644.89C6640.77 1024.03 6633.91 1033.21 6624.29 1043C6614.68 1052.78 6601.9 1061.1 6585.93 1067.97C6569.97 1074.84 6550.49 1078.27 6527.49 1078.27ZM6536.76 1023.69C6560.79 1023.69 6581.04 1018.97 6597.52 1009.53C6614.17 1000.09 6626.7 987.901 6635.11 972.968C6643.69 958.036 6647.98 942.331 6647.98 925.854V870.243C6645.41 873.332 6639.74 876.164 6630.99 878.739C6622.41 881.142 6612.45 883.287 6601.12 885.175C6589.97 886.892 6579.07 888.437 6568.43 889.81C6557.96 891.011 6549.46 892.041 6542.94 892.899C6527.15 894.959 6512.39 898.306 6498.66 902.94C6485.1 907.403 6474.11 914.182 6465.7 923.279C6457.46 932.204 6453.34 944.391 6453.34 959.838C6453.34 980.95 6461.15 996.912 6476.77 1007.73C6492.56 1018.37 6512.56 1023.69 6536.76 1023.69ZM6880.4 541.727V1069H6819.64V541.727H6880.4Z" fill="white"/>
<path d="M4586.14 1486.5H4522.29C4518.51 1468.13 4511.91 1452 4502.47 1438.1C4493.2 1424.2 4481.87 1412.52 4468.48 1403.08C4455.27 1393.47 4440.59 1386.26 4424.46 1381.46C4408.32 1376.65 4391.5 1374.25 4373.99 1374.25C4342.07 1374.25 4313.15 1382.32 4287.23 1398.45C4261.49 1414.58 4240.97 1438.36 4225.7 1469.77C4210.59 1501.18 4203.04 1539.71 4203.04 1585.36C4203.04 1631.02 4210.59 1669.55 4225.7 1700.96C4240.97 1732.37 4261.49 1756.14 4287.23 1772.28C4313.15 1788.41 4342.07 1796.48 4373.99 1796.48C4391.5 1796.48 4408.32 1794.08 4424.46 1789.27C4440.59 1784.46 4455.27 1777.34 4468.48 1767.9C4481.87 1758.29 4493.2 1746.53 4502.47 1732.63C4511.91 1718.55 4518.51 1702.42 4522.29 1684.23H4586.14C4581.33 1711.17 4572.58 1735.29 4559.88 1756.57C4547.18 1777.86 4531.39 1795.96 4512.51 1810.9C4493.63 1825.66 4472.43 1836.9 4448.91 1844.62C4425.57 1852.35 4400.6 1856.21 4373.99 1856.21C4329.03 1856.21 4289.03 1845.22 4254.02 1823.25C4219 1801.28 4191.46 1770.05 4171.38 1729.54C4151.29 1689.03 4141.25 1640.97 4141.25 1585.36C4141.25 1529.75 4151.29 1481.69 4171.38 1441.19C4191.46 1400.68 4219 1369.44 4254.02 1347.47C4289.03 1325.5 4329.03 1314.52 4373.99 1314.52C4400.6 1314.52 4425.57 1318.38 4448.91 1326.1C4472.43 1333.83 4493.63 1345.16 4512.51 1360.09C4531.39 1374.85 4547.18 1392.87 4559.88 1414.15C4572.58 1435.27 4581.33 1459.38 4586.14 1486.5ZM4720.21 1997.3C4709.91 1997.3 4700.73 1996.44 4692.66 1994.72C4684.6 1993.18 4679.02 1991.63 4675.93 1990.09L4691.37 1936.54C4706.14 1940.31 4719.18 1941.68 4730.51 1940.65C4741.84 1939.62 4751.88 1934.56 4760.63 1925.46C4769.56 1916.54 4777.71 1902.04 4785.09 1881.95L4796.42 1851.06L4650.18 1453.55H4716.09L4825.25 1768.67H4829.37L4938.53 1453.55H5004.44L4836.58 1906.67C4829.03 1927.1 4819.67 1944 4808.52 1957.39C4797.36 1970.95 4784.4 1980.99 4769.64 1987.51C4755.05 1994.03 4738.58 1997.3 4720.21 1997.3ZM5092.88 1849V1321.73H5153.64V1516.37H5158.79C5163.25 1509.5 5169.43 1500.75 5177.33 1490.1C5185.39 1479.29 5196.89 1469.68 5211.83 1461.27C5226.93 1452.69 5247.35 1448.4 5273.1 1448.4C5306.4 1448.4 5335.75 1456.72 5361.15 1473.37C5386.55 1490.02 5406.38 1513.62 5420.62 1544.17C5434.87 1574.72 5441.99 1610.77 5441.99 1652.3C5441.99 1694.18 5434.87 1730.48 5420.62 1761.21C5406.38 1791.76 5386.64 1815.44 5361.41 1832.27C5336.18 1848.91 5307.08 1857.24 5274.13 1857.24C5248.73 1857.24 5228.39 1853.03 5213.11 1844.62C5197.84 1836.04 5186.08 1826.34 5177.84 1815.53C5169.6 1804.55 5163.25 1795.45 5158.79 1788.24H5151.58V1849H5092.88ZM5152.61 1651.27C5152.61 1681.14 5156.99 1707.48 5165.74 1730.31C5174.49 1752.97 5187.28 1770.73 5204.1 1783.61C5220.92 1796.31 5241.52 1802.66 5265.89 1802.66C5291.29 1802.66 5312.49 1795.96 5329.48 1782.58C5346.65 1769.02 5359.52 1750.82 5368.1 1728C5376.86 1705 5381.23 1679.42 5381.23 1651.27C5381.23 1623.47 5376.94 1598.41 5368.36 1576.1C5359.95 1553.61 5347.16 1535.85 5330 1522.8C5313.01 1509.59 5291.64 1502.98 5265.89 1502.98C5241.18 1502.98 5220.41 1509.24 5203.59 1521.77C5186.77 1534.13 5174.06 1551.47 5165.48 1573.78C5156.9 1595.92 5152.61 1621.75 5152.61 1651.27ZM5700.74 1857.24C5662.63 1857.24 5629.76 1848.83 5602.13 1832.01C5574.67 1815.02 5553.47 1791.33 5538.54 1760.95C5523.78 1730.4 5516.4 1694.87 5516.4 1654.36C5516.4 1613.86 5523.78 1578.15 5538.54 1547.26C5553.47 1516.19 5574.24 1491.99 5600.84 1474.66C5627.62 1457.15 5658.86 1448.4 5694.56 1448.4C5715.15 1448.4 5735.49 1451.83 5755.58 1458.69C5775.66 1465.56 5793.94 1476.72 5810.41 1492.16C5826.89 1507.44 5840.02 1527.69 5849.8 1552.92C5859.59 1578.15 5864.48 1609.22 5864.48 1646.12V1671.87H5559.65V1619.35H5802.69C5802.69 1597.04 5798.23 1577.12 5789.3 1559.62C5780.55 1542.11 5768.02 1528.29 5751.71 1518.17C5735.58 1508.04 5716.53 1502.98 5694.56 1502.98C5670.36 1502.98 5649.42 1508.98 5631.74 1521C5614.23 1532.84 5600.76 1548.29 5591.32 1567.34C5581.88 1586.39 5577.16 1606.82 5577.16 1628.62V1663.63C5577.16 1693.5 5582.31 1718.81 5592.6 1739.58C5603.07 1760.18 5617.58 1775.88 5636.11 1786.7C5654.65 1797.34 5676.19 1802.66 5700.74 1802.66C5716.7 1802.66 5731.12 1800.43 5743.99 1795.96C5757.03 1791.33 5768.28 1784.46 5777.72 1775.37C5787.16 1766.1 5794.45 1754.6 5799.6 1740.87L5858.3 1757.35C5852.12 1777.26 5841.74 1794.76 5827.15 1809.87C5812.56 1824.8 5794.54 1836.47 5773.08 1844.88C5751.63 1853.12 5727.51 1857.24 5700.74 1857.24ZM5956.91 1849V1453.55H6015.61V1513.28H6019.73C6026.94 1493.71 6039.98 1477.83 6058.86 1465.65C6077.74 1453.46 6099.02 1447.37 6122.71 1447.37C6127.17 1447.37 6132.75 1447.45 6139.44 1447.62C6146.14 1447.8 6151.2 1448.05 6154.63 1448.4V1510.19C6152.57 1509.67 6147.85 1508.9 6140.47 1507.87C6133.27 1506.67 6125.63 1506.07 6117.56 1506.07C6098.34 1506.07 6081.17 1510.1 6066.07 1518.17C6051.14 1526.06 6039.29 1537.05 6030.54 1551.12C6021.96 1565.02 6017.67 1580.9 6017.67 1598.75V1849H5956.91ZM6506.77 1542.11L6452.19 1557.56C6448.76 1548.46 6443.69 1539.62 6437 1531.04C6430.48 1522.29 6421.55 1515.08 6410.22 1509.41C6398.9 1503.75 6384.39 1500.92 6366.71 1500.92C6342.51 1500.92 6322.35 1506.5 6306.21 1517.65C6290.25 1528.64 6282.27 1542.63 6282.27 1559.62C6282.27 1574.72 6287.76 1586.65 6298.75 1595.4C6309.73 1604.16 6326.89 1611.45 6350.24 1617.29L6408.94 1631.71C6444.29 1640.29 6470.64 1653.42 6487.98 1671.1C6505.31 1688.6 6513.98 1711.17 6513.98 1738.81C6513.98 1761.46 6507.46 1781.72 6494.41 1799.57C6481.54 1817.42 6463.52 1831.49 6440.35 1841.79C6417.18 1852.09 6390.23 1857.24 6359.51 1857.24C6319.17 1857.24 6285.79 1848.49 6259.35 1830.98C6232.92 1813.47 6216.19 1787.9 6209.15 1754.26L6266.82 1739.84C6272.31 1761.12 6282.7 1777.08 6297.97 1787.73C6313.42 1798.37 6333.59 1803.69 6358.48 1803.69C6386.8 1803.69 6409.28 1797.68 6425.93 1785.67C6442.75 1773.48 6451.16 1758.89 6451.16 1741.9C6451.16 1728.17 6446.35 1716.67 6436.74 1707.4C6427.13 1697.96 6412.37 1690.92 6392.46 1686.29L6326.55 1670.84C6290.34 1662.26 6263.73 1648.96 6246.74 1630.93C6229.92 1612.74 6221.51 1590 6221.51 1562.71C6221.51 1540.39 6227.77 1520.66 6240.3 1503.49C6253 1486.33 6270.25 1472.85 6292.05 1463.07C6314.02 1453.29 6338.91 1448.4 6366.71 1448.4C6405.85 1448.4 6436.57 1456.98 6458.88 1474.14C6481.37 1491.31 6497.33 1513.96 6506.77 1542.11ZM6771.24 1857.24C6733.14 1857.24 6700.27 1848.83 6672.64 1832.01C6645.18 1815.02 6623.98 1791.33 6609.05 1760.95C6594.29 1730.4 6586.9 1694.87 6586.9 1654.36C6586.9 1613.86 6594.29 1578.15 6609.05 1547.26C6623.98 1516.19 6644.75 1491.99 6671.35 1474.66C6698.13 1457.15 6729.36 1448.4 6765.07 1448.4C6785.66 1448.4 6806 1451.83 6826.08 1458.69C6846.16 1465.56 6864.44 1476.72 6880.92 1492.16C6897.4 1507.44 6910.53 1527.69 6920.31 1552.92C6930.1 1578.15 6934.99 1609.22 6934.99 1646.12V1671.87H6630.16V1619.35H6873.2C6873.2 1597.04 6868.73 1577.12 6859.81 1559.62C6851.06 1542.11 6838.53 1528.29 6822.22 1518.17C6806.09 1508.04 6787.04 1502.98 6765.07 1502.98C6740.86 1502.98 6719.92 1508.98 6702.25 1521C6684.74 1532.84 6671.27 1548.29 6661.83 1567.34C6652.38 1586.39 6647.66 1606.82 6647.66 1628.62V1663.63C6647.66 1693.5 6652.81 1718.81 6663.11 1739.58C6673.58 1760.18 6688.09 1775.88 6706.62 1786.7C6725.16 1797.34 6746.7 1802.66 6771.24 1802.66C6787.21 1802.66 6801.62 1800.43 6814.5 1795.96C6827.54 1791.33 6838.78 1784.46 6848.22 1775.37C6857.66 1766.1 6864.96 1754.6 6870.11 1740.87L6928.81 1757.35C6922.63 1777.26 6912.25 1794.76 6897.66 1809.87C6883.07 1824.8 6865.04 1836.47 6843.59 1844.88C6822.14 1853.12 6798.02 1857.24 6771.24 1857.24ZM7188.07 1857.24C7150.99 1857.24 7119.07 1848.49 7092.29 1830.98C7065.52 1813.47 7044.92 1789.36 7030.5 1758.63C7016.09 1727.91 7008.88 1692.81 7008.88 1653.33C7008.88 1613.17 7016.26 1577.73 7031.02 1547C7045.95 1516.11 7066.72 1491.99 7093.32 1474.66C7120.1 1457.15 7151.34 1448.4 7187.04 1448.4C7214.84 1448.4 7239.9 1453.55 7262.22 1463.84C7284.53 1474.14 7302.81 1488.56 7317.05 1507.1C7331.3 1525.63 7340.14 1547.26 7343.57 1571.98H7282.81C7278.18 1553.95 7267.88 1537.99 7251.92 1524.09C7236.13 1510.01 7214.84 1502.98 7188.07 1502.98C7164.38 1502.98 7143.61 1509.16 7125.76 1521.51C7108.08 1533.7 7094.27 1550.95 7084.31 1573.26C7074.53 1595.4 7069.64 1621.41 7069.64 1651.27C7069.64 1681.82 7074.44 1708.43 7084.06 1731.08C7093.84 1753.74 7107.57 1771.33 7125.25 1783.86C7143.1 1796.39 7164.04 1802.66 7188.07 1802.66C7203.86 1802.66 7218.19 1799.91 7231.06 1794.42C7243.94 1788.93 7254.84 1781.03 7263.76 1770.73C7272.69 1760.43 7279.04 1748.08 7282.81 1733.66H7343.57C7340.14 1757 7331.64 1778.03 7318.08 1796.74C7304.7 1815.27 7286.93 1830.03 7264.79 1841.02C7242.82 1851.83 7217.25 1857.24 7188.07 1857.24ZM7681.61 1687.32V1453.55H7742.37V1849H7681.61V1782.06H7677.49C7668.23 1802.14 7653.81 1819.22 7634.24 1833.3C7614.67 1847.2 7589.96 1854.15 7560.09 1854.15C7535.38 1854.15 7513.41 1848.74 7494.18 1837.93C7474.96 1826.94 7459.86 1810.47 7448.87 1788.5C7437.89 1766.36 7432.39 1738.46 7432.39 1704.82V1453.55H7493.15V1700.7C7493.15 1729.54 7501.22 1752.54 7517.36 1769.7C7533.66 1786.87 7554.43 1795.45 7579.66 1795.45C7594.76 1795.45 7610.13 1791.59 7625.75 1783.86C7641.54 1776.14 7654.75 1764.3 7665.39 1748.33C7676.21 1732.37 7681.61 1712.03 7681.61 1687.32ZM7853.66 1849V1453.55H7912.36V1513.28H7916.48C7923.69 1493.71 7936.73 1477.83 7955.61 1465.65C7974.49 1453.46 7995.78 1447.37 8019.46 1447.37C8023.92 1447.37 8029.5 1447.45 8036.2 1447.62C8042.89 1447.8 8047.95 1448.05 8051.39 1448.4V1510.19C8049.33 1509.67 8044.61 1508.9 8037.23 1507.87C8030.02 1506.67 8022.38 1506.07 8014.31 1506.07C7995.09 1506.07 7977.93 1510.1 7962.82 1518.17C7947.89 1526.06 7936.05 1537.05 7927.29 1551.12C7918.71 1565.02 7914.42 1580.9 7914.42 1598.75V1849H7853.66ZM8123.41 1849V1453.55H8184.17V1849H8123.41ZM8154.31 1387.64C8142.46 1387.64 8132.25 1383.6 8123.67 1375.54C8115.26 1367.47 8111.05 1357.77 8111.05 1346.44C8111.05 1335.12 8115.26 1325.42 8123.67 1317.35C8132.25 1309.28 8142.46 1305.25 8154.31 1305.25C8166.15 1305.25 8176.28 1309.28 8184.69 1317.35C8193.27 1325.42 8197.56 1335.12 8197.56 1346.44C8197.56 1357.77 8193.27 1367.47 8184.69 1375.54C8176.28 1383.6 8166.15 1387.64 8154.31 1387.64ZM8467.44 1453.55V1505.04H8262.5V1453.55H8467.44ZM8322.23 1358.8H8382.99V1735.72C8382.99 1752.88 8385.48 1765.76 8390.46 1774.34C8395.61 1782.75 8402.13 1788.41 8410.03 1791.33C8418.09 1794.08 8426.59 1795.45 8435.51 1795.45C8442.21 1795.45 8447.7 1795.11 8451.99 1794.42C8456.28 1793.56 8459.71 1792.87 8462.29 1792.36L8474.65 1846.94C8470.53 1848.49 8464.78 1850.03 8457.4 1851.57C8450.02 1853.29 8440.66 1854.15 8429.33 1854.15C8412.17 1854.15 8395.35 1850.46 8378.87 1843.08C8362.57 1835.7 8349.01 1824.46 8338.19 1809.35C8327.55 1794.25 8322.23 1775.2 8322.23 1752.2V1358.8ZM8597.97 1997.3C8587.67 1997.3 8578.49 1996.44 8570.42 1994.72C8562.35 1993.18 8556.78 1991.63 8553.69 1990.09L8569.13 1936.54C8583.89 1940.31 8596.94 1941.68 8608.27 1940.65C8619.6 1939.62 8629.64 1934.56 8638.39 1925.46C8647.31 1916.54 8655.47 1902.04 8662.85 1881.95L8674.18 1851.06L8527.94 1453.55H8593.85L8703.01 1768.67H8707.13L8816.29 1453.55H8882.2L8714.34 1906.67C8706.79 1927.1 8697.43 1944 8686.28 1957.39C8675.12 1970.95 8662.16 1980.99 8647.4 1987.51C8632.81 1994.03 8616.33 1997.3 8597.97 1997.3ZM9174.54 1849V1321.73H9352.71C9393.9 1321.73 9427.71 1328.76 9454.14 1342.84C9480.58 1356.74 9500.14 1375.88 9512.84 1400.25C9525.54 1424.62 9531.9 1452.34 9531.9 1483.41C9531.9 1514.48 9525.54 1542.02 9512.84 1566.05C9500.14 1590.08 9480.66 1608.96 9454.4 1622.69C9428.14 1636.25 9394.59 1643.03 9353.74 1643.03H9209.56V1585.36H9351.68C9379.82 1585.36 9402.48 1581.24 9419.64 1573.01C9436.98 1564.77 9449.51 1553.1 9457.23 1537.99C9465.13 1522.72 9469.08 1504.52 9469.08 1483.41C9469.08 1462.3 9465.13 1443.85 9457.23 1428.06C9449.34 1412.27 9436.72 1400.08 9419.39 1391.5C9402.05 1382.74 9379.14 1378.37 9350.65 1378.37H9238.39V1849H9174.54ZM9422.73 1612.14L9552.49 1849H9478.34L9350.65 1612.14H9422.73ZM9779.38 1856.21C9744.71 1856.21 9714.84 1849.86 9689.78 1837.16C9664.72 1824.46 9645.41 1807.03 9631.85 1784.89C9618.29 1762.75 9611.51 1737.44 9611.51 1708.94C9611.51 1686.97 9616.15 1667.49 9625.42 1650.5C9634.86 1633.34 9647.82 1617.46 9664.29 1602.87C9680.94 1588.11 9700.08 1573.35 9721.71 1558.59L9797.91 1501.95C9812.85 1492.16 9824.77 1481.69 9833.7 1470.54C9842.8 1459.38 9847.35 1444.79 9847.35 1426.77C9847.35 1413.38 9841.42 1400.42 9829.58 1387.89C9817.91 1375.36 9802.55 1369.1 9783.5 1369.1C9770.11 1369.1 9758.27 1372.53 9747.97 1379.4C9737.84 1386.09 9729.86 1394.67 9724.02 1405.14C9718.36 1415.44 9715.53 1426.08 9715.53 1437.07C9715.53 1449.43 9718.87 1461.96 9725.57 1474.66C9732.43 1487.19 9741.1 1500.06 9751.57 1513.28C9762.21 1526.32 9773.2 1539.71 9784.53 1553.44L10026.5 1849H9953.42L9753.63 1608.02C9735.09 1585.71 9718.27 1565.45 9703.17 1547.26C9688.06 1529.07 9676.05 1511.13 9667.13 1493.45C9658.2 1475.77 9653.74 1456.63 9653.74 1436.04C9653.74 1412.35 9658.97 1391.58 9669.44 1373.73C9680.08 1355.71 9694.93 1341.72 9713.98 1331.77C9733.21 1321.64 9755.69 1316.58 9781.44 1316.58C9807.87 1316.58 9830.61 1321.73 9849.66 1332.03C9868.71 1342.15 9883.39 1355.63 9893.69 1372.45C9903.99 1389.1 9909.14 1407.2 9909.14 1426.77C9909.14 1452 9902.87 1473.88 9890.34 1492.42C9877.81 1510.96 9860.73 1528.21 9839.11 1544.17L9734.06 1622.44C9710.38 1639.94 9694.33 1656.94 9685.92 1673.41C9677.51 1689.89 9673.3 1701.73 9673.3 1708.94C9673.3 1725.42 9677.6 1740.78 9686.18 1755.03C9694.76 1769.27 9706.86 1780.77 9722.48 1789.53C9738.1 1798.28 9756.38 1802.66 9777.32 1802.66C9797.23 1802.66 9816.62 1798.45 9835.5 1790.04C9854.38 1781.46 9871.46 1769.1 9886.74 1752.97C9902.18 1736.83 9914.37 1717.44 9923.3 1694.78C9932.39 1672.13 9936.94 1646.64 9936.94 1618.32H9995.64C9995.64 1653.33 9991.61 1681.91 9983.54 1704.05C9975.47 1726.19 9966.38 1743.53 9956.25 1756.06C9946.12 1768.59 9937.97 1777.94 9931.79 1784.12C9929.73 1786.7 9927.84 1789.27 9926.13 1791.84C9924.41 1794.42 9922.52 1796.99 9920.46 1799.57C9903.47 1818.62 9882.02 1832.87 9856.1 1842.31C9830.18 1851.57 9804.61 1856.21 9779.38 1856.21ZM10264.7 1849H10102V1321.73H10272C10323.1 1321.73 10366.9 1332.28 10403.3 1353.39C10439.6 1374.33 10467.5 1404.46 10486.9 1443.76C10506.3 1482.9 10516 1529.75 10516 1584.33C10516 1639.26 10506.2 1686.54 10486.7 1726.19C10467.1 1765.67 10438.6 1796.05 10401.2 1817.33C10363.8 1838.44 10318.3 1849 10264.7 1849ZM10165.9 1792.36H10260.6C10304.2 1792.36 10340.4 1783.95 10369 1767.13C10397.7 1750.31 10419.1 1726.36 10433.1 1695.3C10447.2 1664.23 10454.2 1627.24 10454.2 1584.33C10454.2 1541.77 10447.3 1505.12 10433.4 1474.4C10419.5 1443.5 10398.7 1419.82 10371.1 1403.34C10343.4 1386.69 10309 1378.37 10267.8 1378.37H10165.9V1792.36Z" fill="white"/>
<path d="M4173.85 2631V2103.73H4237.7V2574.36H4482.8V2631H4173.85ZM4689.79 2640.27C4664.73 2640.27 4641.99 2635.55 4621.57 2626.11C4601.14 2616.5 4584.92 2602.68 4572.91 2584.66C4560.89 2566.46 4554.89 2544.49 4554.89 2518.75C4554.89 2496.09 4559.35 2477.73 4568.27 2463.65C4577.2 2449.41 4589.13 2438.25 4604.06 2430.18C4618.99 2422.12 4635.47 2416.11 4653.49 2412.16C4671.69 2408.04 4689.97 2404.78 4708.33 2402.38C4732.36 2399.29 4751.84 2396.97 4766.77 2395.43C4781.88 2393.71 4792.86 2390.88 4799.73 2386.93C4806.77 2382.98 4810.28 2376.12 4810.28 2366.33V2364.27C4810.28 2338.87 4803.33 2319.13 4789.43 2305.06C4775.7 2290.98 4754.84 2283.95 4726.87 2283.95C4697.86 2283.95 4675.12 2290.3 4658.64 2303C4642.16 2315.7 4630.58 2329.26 4623.88 2343.68L4566.21 2323.08C4576.51 2299.05 4590.24 2280.34 4607.41 2266.96C4624.74 2253.4 4643.62 2243.96 4664.05 2238.63C4684.64 2233.14 4704.9 2230.4 4724.81 2230.4C4737.51 2230.4 4752.1 2231.94 4768.58 2235.03C4785.22 2237.95 4801.27 2244.04 4816.72 2253.31C4832.34 2262.58 4845.3 2276.57 4855.6 2295.28C4865.89 2313.98 4871.04 2339.04 4871.04 2370.45V2631H4810.28V2577.45H4807.19C4803.08 2586.03 4796.21 2595.21 4786.6 2605C4776.99 2614.78 4764.2 2623.1 4748.24 2629.97C4732.27 2636.84 4712.79 2640.27 4689.79 2640.27ZM4699.06 2585.69C4723.09 2585.69 4743.35 2580.97 4759.82 2571.53C4776.47 2562.09 4789 2549.9 4797.41 2534.97C4805.99 2520.04 4810.28 2504.33 4810.28 2487.85V2432.24C4807.71 2435.33 4802.05 2438.16 4793.29 2440.74C4784.71 2443.14 4774.75 2445.29 4763.43 2447.18C4752.27 2448.89 4741.37 2450.44 4730.73 2451.81C4720.26 2453.01 4711.76 2454.04 4705.24 2454.9C4689.45 2456.96 4674.69 2460.31 4660.96 2464.94C4647.4 2469.4 4636.41 2476.18 4628 2485.28C4619.77 2494.2 4615.65 2506.39 4615.65 2521.84C4615.65 2542.95 4623.46 2558.91 4639.07 2569.73C4654.87 2580.37 4674.86 2585.69 4699.06 2585.69ZM4990.18 2631V2103.73H5050.94V2298.37H5056.09C5060.55 2291.5 5066.73 2282.75 5074.63 2272.1C5082.7 2261.29 5094.2 2251.68 5109.13 2243.27C5124.23 2234.69 5144.66 2230.4 5170.4 2230.4C5203.7 2230.4 5233.05 2238.72 5258.45 2255.37C5283.86 2272.02 5303.68 2295.62 5317.93 2326.17C5332.17 2356.72 5339.29 2392.77 5339.29 2434.3C5339.29 2476.18 5332.17 2512.48 5317.93 2543.21C5303.68 2573.76 5283.94 2597.44 5258.71 2614.27C5233.48 2630.91 5204.39 2639.24 5171.43 2639.24C5146.03 2639.24 5125.69 2635.03 5110.42 2626.62C5095.14 2618.04 5083.38 2608.34 5075.14 2597.53C5066.9 2586.55 5060.55 2577.45 5056.09 2570.24H5048.88V2631H4990.18ZM5049.91 2433.27C5049.91 2463.14 5054.29 2489.48 5063.04 2512.31C5071.8 2534.97 5084.58 2552.73 5101.4 2565.61C5118.22 2578.31 5138.82 2584.66 5163.19 2584.66C5188.6 2584.66 5209.79 2577.96 5226.79 2564.58C5243.95 2551.02 5256.82 2532.82 5265.4 2510C5274.16 2487 5278.53 2461.42 5278.53 2433.27C5278.53 2405.47 5274.24 2380.41 5265.66 2358.1C5257.25 2335.61 5244.46 2317.85 5227.3 2304.8C5210.31 2291.59 5188.94 2284.98 5163.19 2284.98C5138.48 2284.98 5117.71 2291.24 5100.89 2303.77C5084.07 2316.13 5071.37 2333.47 5062.79 2355.78C5054.2 2377.92 5049.91 2403.75 5049.91 2433.27ZM5592.89 2639.24C5557.19 2639.24 5525.87 2630.74 5498.92 2613.75C5472.14 2596.76 5451.2 2572.99 5436.1 2542.43C5421.17 2511.88 5413.7 2476.18 5413.7 2435.33C5413.7 2394.14 5421.17 2358.18 5436.1 2327.46C5451.2 2296.73 5472.14 2272.88 5498.92 2255.88C5525.87 2238.89 5557.19 2230.4 5592.89 2230.4C5628.59 2230.4 5659.83 2238.89 5686.6 2255.88C5713.55 2272.88 5734.49 2296.73 5749.42 2327.46C5764.53 2358.18 5772.08 2394.14 5772.08 2435.33C5772.08 2476.18 5764.53 2511.88 5749.42 2542.43C5734.49 2572.99 5713.55 2596.76 5686.6 2613.75C5659.83 2630.74 5628.59 2639.24 5592.89 2639.24ZM5592.89 2584.66C5620.01 2584.66 5642.32 2577.71 5659.83 2563.8C5677.34 2549.9 5690.29 2531.62 5698.71 2508.97C5707.12 2486.31 5711.32 2461.76 5711.32 2435.33C5711.32 2408.9 5707.12 2384.27 5698.71 2361.44C5690.29 2338.61 5677.34 2320.16 5659.83 2306.09C5642.32 2292.01 5620.01 2284.98 5592.89 2284.98C5565.77 2284.98 5543.46 2292.01 5525.95 2306.09C5508.44 2320.16 5495.49 2338.61 5487.08 2361.44C5478.66 2384.27 5474.46 2408.9 5474.46 2435.33C5474.46 2461.76 5478.66 2486.31 5487.08 2508.97C5495.49 2531.62 5508.44 2549.9 5525.95 2563.8C5543.46 2577.71 5565.77 2584.66 5592.89 2584.66ZM5864.83 2631V2235.55H5923.53V2295.28H5927.65C5934.86 2275.71 5947.9 2259.83 5966.78 2247.65C5985.66 2235.46 6006.95 2229.37 6030.63 2229.37C6035.09 2229.37 6040.67 2229.45 6047.37 2229.62C6054.06 2229.8 6059.12 2230.05 6062.56 2230.4V2292.19C6060.5 2291.67 6055.78 2290.9 6048.4 2289.87C6041.19 2288.67 6033.55 2288.07 6025.48 2288.07C6006.26 2288.07 5989.1 2292.1 5973.99 2300.17C5959.06 2308.06 5947.22 2319.05 5938.46 2333.12C5929.88 2347.02 5925.59 2362.9 5925.59 2380.75V2631H5864.83ZM6250.95 2640.27C6225.89 2640.27 6203.15 2635.55 6182.73 2626.11C6162.3 2616.5 6146.08 2602.68 6134.07 2584.66C6122.05 2566.46 6116.04 2544.49 6116.04 2518.75C6116.04 2496.09 6120.51 2477.73 6129.43 2463.65C6138.36 2449.41 6150.29 2438.25 6165.22 2430.18C6180.15 2422.12 6196.63 2416.11 6214.65 2412.16C6232.84 2408.04 6251.12 2404.78 6269.49 2402.38C6293.52 2399.29 6313 2396.97 6327.93 2395.43C6343.04 2393.71 6354.02 2390.88 6360.89 2386.93C6367.92 2382.98 6371.44 2376.12 6371.44 2366.33V2364.27C6371.44 2338.87 6364.49 2319.13 6350.59 2305.06C6336.86 2290.98 6316 2283.95 6288.03 2283.95C6259.02 2283.95 6236.28 2290.3 6219.8 2303C6203.32 2315.7 6191.74 2329.26 6185.04 2343.68L6127.37 2323.08C6137.67 2299.05 6151.4 2280.34 6168.56 2266.96C6185.9 2253.4 6204.78 2243.96 6225.21 2238.63C6245.8 2233.14 6266.06 2230.4 6285.97 2230.4C6298.67 2230.4 6313.26 2231.94 6329.73 2235.03C6346.38 2237.95 6362.43 2244.04 6377.88 2253.31C6393.5 2262.58 6406.46 2276.57 6416.75 2295.28C6427.05 2313.98 6432.2 2339.04 6432.2 2370.45V2631H6371.44V2577.45H6368.35C6364.23 2586.03 6357.37 2595.21 6347.76 2605C6338.14 2614.78 6325.36 2623.1 6309.39 2629.97C6293.43 2636.84 6273.95 2640.27 6250.95 2640.27ZM6260.22 2585.69C6284.25 2585.69 6304.5 2580.97 6320.98 2571.53C6337.63 2562.09 6350.16 2549.9 6358.57 2534.97C6367.15 2520.04 6371.44 2504.33 6371.44 2487.85V2432.24C6368.87 2435.33 6363.2 2438.16 6354.45 2440.74C6345.87 2443.14 6335.91 2445.29 6324.58 2447.18C6313.43 2448.89 6302.53 2450.44 6291.89 2451.81C6281.42 2453.01 6272.92 2454.04 6266.4 2454.9C6250.61 2456.96 6235.85 2460.31 6222.12 2464.94C6208.56 2469.4 6197.57 2476.18 6189.16 2485.28C6180.92 2494.2 6176.8 2506.39 6176.8 2521.84C6176.8 2542.95 6184.61 2558.91 6200.23 2569.73C6216.02 2580.37 6236.02 2585.69 6260.22 2585.69ZM6715.08 2235.55V2287.04H6510.15V2235.55H6715.08ZM6569.88 2140.8H6630.64V2517.72C6630.64 2534.88 6633.13 2547.76 6638.1 2556.34C6643.25 2564.75 6649.77 2570.41 6657.67 2573.33C6665.74 2576.08 6674.23 2577.45 6683.16 2577.45C6689.85 2577.45 6695.34 2577.11 6699.64 2576.42C6703.93 2575.56 6707.36 2574.87 6709.93 2574.36L6722.29 2628.94C6718.17 2630.49 6712.42 2632.03 6705.04 2633.57C6697.66 2635.29 6688.31 2636.15 6676.98 2636.15C6659.82 2636.15 6642.99 2632.46 6626.52 2625.08C6610.21 2617.7 6596.65 2606.46 6585.84 2591.35C6575.2 2576.25 6569.88 2557.2 6569.88 2534.2V2140.8ZM6962.89 2639.24C6927.18 2639.24 6895.86 2630.74 6868.91 2613.75C6842.14 2596.76 6821.2 2572.99 6806.09 2542.43C6791.16 2511.88 6783.69 2476.18 6783.69 2435.33C6783.69 2394.14 6791.16 2358.18 6806.09 2327.46C6821.2 2296.73 6842.14 2272.88 6868.91 2255.88C6895.86 2238.89 6927.18 2230.4 6962.89 2230.4C6998.59 2230.4 7029.82 2238.89 7056.6 2255.88C7083.55 2272.88 7104.49 2296.73 7119.42 2327.46C7134.52 2358.18 7142.08 2394.14 7142.08 2435.33C7142.08 2476.18 7134.52 2511.88 7119.42 2542.43C7104.49 2572.99 7083.55 2596.76 7056.6 2613.75C7029.82 2630.74 6998.59 2639.24 6962.89 2639.24ZM6962.89 2584.66C6990 2584.66 7012.32 2577.71 7029.82 2563.8C7047.33 2549.9 7060.29 2531.62 7068.7 2508.97C7077.11 2486.31 7081.32 2461.76 7081.32 2435.33C7081.32 2408.9 7077.11 2384.27 7068.7 2361.44C7060.29 2338.61 7047.33 2320.16 7029.82 2306.09C7012.32 2292.01 6990 2284.98 6962.89 2284.98C6935.77 2284.98 6913.45 2292.01 6895.95 2306.09C6878.44 2320.16 6865.48 2338.61 6857.07 2361.44C6848.66 2384.27 6844.45 2408.9 6844.45 2435.33C6844.45 2461.76 6848.66 2486.31 6857.07 2508.97C6865.48 2531.62 6878.44 2549.9 6895.95 2563.8C6913.45 2577.71 6935.77 2584.66 6962.89 2584.66ZM7234.82 2631V2235.55H7293.52V2295.28H7297.64C7304.85 2275.71 7317.9 2259.83 7336.78 2247.65C7355.66 2235.46 7376.94 2229.37 7400.63 2229.37C7405.09 2229.37 7410.67 2229.45 7417.36 2229.62C7424.06 2229.8 7429.12 2230.05 7432.55 2230.4V2292.19C7430.49 2291.67 7425.77 2290.9 7418.39 2289.87C7411.18 2288.67 7403.55 2288.07 7395.48 2288.07C7376.25 2288.07 7359.09 2292.1 7343.99 2300.17C7329.05 2308.06 7317.21 2319.05 7308.46 2333.12C7299.88 2347.02 7295.58 2362.9 7295.58 2380.75V2631H7234.82ZM7555.75 2779.3C7545.45 2779.3 7536.26 2778.44 7528.2 2776.72C7520.13 2775.18 7514.55 2773.63 7511.46 2772.09L7526.91 2718.54C7541.67 2722.31 7554.72 2723.68 7566.04 2722.65C7577.37 2721.62 7587.41 2716.56 7596.17 2707.46C7605.09 2698.54 7613.24 2684.04 7620.62 2663.95L7631.95 2633.06L7485.72 2235.55H7551.63L7660.79 2550.67H7664.91L7774.07 2235.55H7839.98L7672.12 2688.67C7664.56 2709.1 7655.21 2726 7644.05 2739.39C7632.9 2752.95 7619.94 2762.99 7605.18 2769.51C7590.59 2776.03 7574.11 2779.3 7555.75 2779.3Z" fill="white"/>
</svg>
